<svg width="84" height="25" viewBox="0 0 84 25" fill="none" xmlns="http://www.w3.org/2000/svg">
  <path
    d="M80 3.00003H14.3745C12.9108 3.00003 11.5639 3.79958 10.863 5.08462L3.22659 19.0846C1.77268 21.7501 3.70193 25 6.73817 25H80C82.2091 25 84 23.2092 84 21V7.00003C84 4.79089 82.2091 3.00003 80 3.00003Z"
    fill="#0C0A22" />
  <path
    d="M35.085 19V12.42L33.447 13.064V10.684L36.121 9.36803H38.361V19H35.085ZM42.9565 19.112C42.4711 19.112 41.9205 19.0794 41.3045 19.014C40.6978 18.958 40.1611 18.8834 39.6945 18.79V16.606C40.8611 16.718 41.8411 16.774 42.6345 16.774C42.9891 16.774 43.2365 16.7647 43.3765 16.746C43.5165 16.718 43.6098 16.6574 43.6565 16.564C43.7125 16.4707 43.7405 16.3074 43.7405 16.074C43.7405 15.822 43.7171 15.64 43.6705 15.528C43.6238 15.416 43.5445 15.346 43.4325 15.318C43.3205 15.29 43.1291 15.276 42.8585 15.276H41.3605V12.994H42.8585C43.1291 12.994 43.3158 12.98 43.4185 12.952C43.5305 12.9147 43.6005 12.854 43.6285 12.77C43.6565 12.6767 43.6705 12.5134 43.6705 12.28C43.6705 12.0467 43.6471 11.888 43.6005 11.804C43.5538 11.7107 43.4558 11.6547 43.3065 11.636C43.1665 11.608 42.8958 11.594 42.4945 11.594C42.0931 11.594 41.6311 11.6127 41.1085 11.65C40.5951 11.6874 40.1425 11.7294 39.7505 11.776V9.57803C40.2078 9.4847 40.7398 9.41003 41.3465 9.35403C41.9531 9.2887 42.4945 9.25603 42.9705 9.25603C43.9691 9.25603 44.7578 9.35403 45.3365 9.55003C45.9151 9.7367 46.3258 10.012 46.5685 10.376C46.8205 10.74 46.9465 11.2114 46.9465 11.79C46.9465 12.4714 46.8111 12.9847 46.5405 13.33C46.2698 13.6754 45.8451 13.918 45.2665 14.058V14.114C45.6771 14.2167 46.0038 14.3474 46.2465 14.506C46.4985 14.6647 46.6898 14.898 46.8205 15.206C46.9511 15.5047 47.0165 15.9107 47.0165 16.424C47.0165 17.0214 46.8998 17.516 46.6665 17.908C46.4425 18.2907 46.0318 18.5894 45.4345 18.804C44.8465 19.0094 44.0205 19.112 42.9565 19.112Z"
    fill="#FFFAFA" />
  <path fill-rule="evenodd" clip-rule="evenodd"
    d="M70.5 19.2092C70.5 19.6459 70.8541 20 71.2909 20H73.3593C73.7961 20 74.1502 19.6459 74.1502 19.2092V15.2909H78.2091C78.6459 15.2909 79 14.9368 79 14.5V12.7909C79 12.3541 78.6459 12 78.2091 12H74.1502V7.7909C74.1502 7.35412 73.7961 7.00003 73.3593 7.00003L71.2909 7.00003C70.8541 7.00003 70.5 7.35412 70.5 7.79091V12H66.7909C66.3541 12 66 12.3541 66 12.7909L66 14.5C66 14.9368 66.3541 15.2909 66.7909 15.2909H70.5V19.2092Z"
    fill="url(#paint0_linear_3620_1810)" />
  <path d="M61.5 3.00003V25" stroke="#191241" />
  <path fill-rule="evenodd" clip-rule="evenodd"
    d="M15.086 2.61798L14.1966 3.50258L13.3276 2.63823C11.8246 1.14324 9.43602 0.999771 7.76307 2.304L4.47451 4.86776C3.17605 5.88004 3.03355 7.78352 4.16696 8.97592L13.4921 18.7864C13.8701 19.184 14.51 19.1722 14.8729 18.7608L23.9034 8.52097C24.9696 7.31199 24.7886 5.45879 23.5084 4.47649L20.625 2.264C18.9517 0.980107 16.5803 1.13166 15.086 2.61798ZM3.61029 3.77102L6.89885 1.20726C9.08463 -0.496779 12.1866 -0.347338 14.196 1.53492C16.193 -0.355326 19.2869 -0.522623 21.4807 1.16067L24.3641 3.37316C26.2844 4.84661 26.5558 7.6264 24.9565 9.43989L15.9261 19.6797C15.019 20.7082 13.4191 20.7379 12.4741 19.7437L3.14896 9.93326C1.44884 8.14466 1.6626 5.28944 3.61029 3.77102Z"
    fill="url(#paint1_linear_3620_1810)" />
  <path fill-rule="evenodd" clip-rule="evenodd"
    d="M14.1881 3.85155L13.3566 3.03204C11.9185 1.6146 9.63305 1.47858 8.03233 2.71515L4.88575 5.14591C3.64335 6.10568 3.507 7.91041 4.59148 9.04096L13.514 18.3425C13.8757 18.7195 14.488 18.7083 14.8352 18.3182L23.4758 8.60961C24.4959 7.46334 24.3228 5.70628 23.0979 4.77494L20.3389 2.67722C18.7379 1.45993 16.4688 1.60362 15.0391 3.01284L14.1881 3.85155ZM13.6726 2.72063L14.1881 3.22873L14.7231 2.70143C16.3118 1.13564 18.833 0.975979 20.6118 2.32852L23.3708 4.42624C24.7999 5.5128 25.0019 7.56271 23.8117 8.90002L15.1711 18.6086C14.6503 19.1937 13.7318 19.2106 13.1893 18.645L4.2668 9.34351C3.00157 8.02455 3.16065 5.91902 4.61012 4.79929L7.75669 2.36853C9.53528 0.994561 12.0747 1.1457 13.6726 2.72063Z"
    fill="url(#paint2_linear_3620_1810)" />
  <g filter="url(#filter0_d_3620_1810)">
    <path
      d="M13.3283 2.65363L14.1964 3.51619L15.0848 2.63343C16.5776 1.15018 18.9467 0.998939 20.6182 2.28018L23.4987 4.48809C24.7776 5.46836 24.9584 7.31773 23.8933 8.52422L14.872 18.7428C14.5095 19.1534 13.8702 19.1652 13.4926 18.7684L4.17694 8.97823C3.04468 7.78829 3.18704 5.88874 4.48418 4.87856L7.76939 2.3201C9.44065 1.01856 11.8268 1.16173 13.3283 2.65363Z"
      fill="url(#paint3_linear_3620_1810)" />
  </g>
  <g filter="url(#filter1_d_3620_1810)">
    <path fill-rule="evenodd" clip-rule="evenodd"
      d="M14.1964 4.82726L12.6685 3.30917C11.5007 2.1488 9.64482 2.03745 8.34496 3.04975L5.05974 5.60821C4.19498 6.28167 4.10008 7.54803 4.85492 8.34132L14.1706 18.1315L23.1919 7.91287C23.902 7.10855 23.7814 5.87564 22.9288 5.22213L20.0483 3.01421C18.7482 2.01769 16.9056 2.13532 15.7446 3.28896L14.1964 4.82726ZM14.1964 3.51619L13.3283 2.65363C11.8268 1.16173 9.44065 1.01856 7.76939 2.3201L4.48418 4.87856C3.18704 5.88874 3.04468 7.78829 4.17694 8.97823L13.4926 18.7684C13.8702 19.1652 14.5095 19.1534 14.872 18.7428L23.8933 8.52422C24.9584 7.31773 24.7776 5.46836 23.4987 4.48809L20.6182 2.28018C18.9467 0.998939 16.5776 1.15018 15.0848 2.63343L14.1964 3.51619Z"
      fill="url(#paint4_linear_3620_1810)" />
  </g>
  <defs>
    <filter id="filter0_d_3620_1810" x="3.41174" y="1.4115" width="21.1765" height="17.6471"
      filterUnits="userSpaceOnUse" color-interpolation-filters="sRGB">
      <feFlood flood-opacity="0" result="BackgroundImageFix" />
      <feColorMatrix in="SourceAlpha" type="matrix" values="0 0 0 0 0 0 0 0 0 0 0 0 0 0 0 0 0 0 127 0"
        result="hardAlpha" />
      <feOffset />
      <feColorMatrix type="matrix" values="0 0 0 0 0 0 0 0 0 0 0 0 0 0 0 0 0 0 0.25 0" />
      <feBlend mode="normal" in2="BackgroundImageFix" result="effect1_dropShadow_3620_1810" />
      <feBlend mode="normal" in="SourceGraphic" in2="effect1_dropShadow_3620_1810" result="shape" />
    </filter>
    <filter id="filter1_d_3620_1810" x="3.41174" y="1.4115" width="21.1765" height="17.6471"
      filterUnits="userSpaceOnUse" color-interpolation-filters="sRGB">
      <feFlood flood-opacity="0" result="BackgroundImageFix" />
      <feColorMatrix in="SourceAlpha" type="matrix" values="0 0 0 0 0 0 0 0 0 0 0 0 0 0 0 0 0 0 127 0"
        result="hardAlpha" />
      <feOffset />
      <feColorMatrix type="matrix" values="0 0 0 0 0 0 0 0 0 0 0 0 0 0 0 0 0 0 0.25 0" />
      <feBlend mode="normal" in2="BackgroundImageFix" result="effect1_dropShadow_3620_1810" />
      <feBlend mode="normal" in="SourceGraphic" in2="effect1_dropShadow_3620_1810" result="shape" />
    </filter>
    <linearGradient id="paint0_linear_3620_1810" x1="68.4516" y1="8.48446" x2="76.391" y2="20"
      gradientUnits="userSpaceOnUse">
      <stop offset="0.0572917" stop-color="#A0D708" />
      <stop offset="0.322917" stop-color="#8FC300" />
      <stop offset="1" stop-color="#306D06" />
    </linearGradient>
    <linearGradient id="paint1_linear_3620_1810" x1="13.9631" y1="0.0188815" x2="13.9631" y2="19.5276"
      gradientUnits="userSpaceOnUse">
      <stop stop-color="#8B1536" />
      <stop offset="1" stop-color="#3A0538" />
    </linearGradient>
    <linearGradient id="paint2_linear_3620_1810" x1="13.9647" y1="0.548571" x2="13.9647" y2="19.0452"
      gradientUnits="userSpaceOnUse">
      <stop stop-color="#5A0606" />
      <stop offset="1" stop-color="#270007" />
    </linearGradient>
    <linearGradient id="paint3_linear_3620_1810" x1="13.9631" y1="0.0399137" x2="13.9631" y2="19.5083"
      gradientUnits="userSpaceOnUse">
      <stop stop-color="#E30C07" />
      <stop offset="0.640625" stop-color="#E62D7A" />
      <stop offset="1" stop-color="#FF228E" />
    </linearGradient>
    <linearGradient id="paint4_linear_3620_1810" x1="13.9631" y1="0.0397012" x2="13.9631" y2="19.5081"
      gradientUnits="userSpaceOnUse">
      <stop stop-color="#FFECA9" />
      <stop offset="0.4375" stop-color="#FF3F3F" />
      <stop offset="1" stop-color="#EE3372" />
    </linearGradient>
  </defs>
</svg>
