<svg width="105" height="29" viewBox="0 0 105 29" fill="none" xmlns="http://www.w3.org/2000/svg">
  <path
    d="M100.5 7.00003H14.3745C12.9108 7.00003 11.5639 7.79958 10.863 9.08462L3.22659 23.0846C1.77268 25.7501 3.70193 29 6.73817 29H100.5C102.709 29 104.5 27.2092 104.5 25V11C104.5 8.79089 102.709 7.00003 100.5 7.00003Z"
    fill="#0C0A22" />
  <path
    d="M17 25.5C23.9036 25.5 29.5 19.9037 29.5 13C29.5 6.09639 23.9036 0.500031 17 0.500031C10.0964 0.500031 4.5 6.09639 4.5 13C4.5 19.9037 10.0964 25.5 17 25.5Z"
    fill="url(#paint0_radial_3620_1783)" stroke="#652301" />
  <path
    d="M5 12.9997C5 17.2827 7.24432 21.041 10.6206 23.1645H23.3794C26.7557 21.041 29 17.2827 29 12.9997C29 8.71671 26.7557 4.95847 23.3794 2.83499H10.6206C7.24432 4.95847 5 8.71671 5 12.9997Z"
    fill="url(#paint1_linear_3620_1783)" />
  <path
    d="M16.0471 1.03714C9.8653 1.52292 5 6.6929 5 12.9996C5 19.3063 9.8653 24.4763 16.0471 24.9621C22.2289 24.4763 27.0942 19.3063 27.0942 12.9996C27.0942 6.6929 22.2289 1.52292 16.0471 1.03714Z"
    fill="url(#paint2_radial_3620_1783)" />
  <path
    d="M16.0471 1.03714C9.8653 1.52292 5 6.6929 5 12.9996C5 19.3063 9.8653 24.4763 16.0471 24.9621C22.2289 24.4763 27.0942 19.3063 27.0942 12.9996C27.0942 6.6929 22.2289 1.52292 16.0471 1.03714Z"
    fill="url(#paint3_linear_3620_1783)" />
  <path
    d="M16.6682 2.1358C16.2562 2.07977 15.838 2.07977 15.4258 2.1358C10.0758 2.86365 5.95264 7.45026 5.95264 13C5.95264 18.5497 10.0758 23.1364 15.4258 23.8642C15.838 23.9202 16.2562 23.9202 16.6682 23.8642C22.0183 23.1364 26.1415 18.5497 26.1415 13C26.1415 7.45026 22.0183 2.86365 16.6682 2.1358Z"
    fill="url(#paint4_radial_3620_1783)" />
  <path
    d="M24.0226 12.9995C24.0226 8.16409 20.4299 4.24417 15.9982 4.24417C11.5663 4.24417 7.97363 8.16409 7.97363 12.9995C7.97363 17.835 11.5663 21.7549 15.9982 21.7549C20.4299 21.7549 24.0226 17.835 24.0226 12.9995Z"
    fill="url(#paint5_radial_3620_1783)" />
  <path
    d="M18.2016 4.57962C17.2026 4.26907 16.1354 4.26907 15.1364 4.57962C11.7759 5.62424 9.31494 8.9985 9.31494 13.0003C9.31494 17.0802 11.8731 20.5081 15.3347 21.4795C16.2065 21.7242 17.1315 21.7242 18.0033 21.4795C21.4649 20.5081 24.0229 17.0804 24.0229 13.0003C24.0229 8.9985 21.5621 5.62424 18.2016 4.57962Z"
    fill="url(#paint6_radial_3620_1783)" />
  <g filter="url(#filter0_d_3620_1783)">
    <path
      d="M13.0894 16.0846C13.0894 15.9203 13.1496 15.7563 13.2701 15.592C13.3906 15.4279 13.5283 15.3457 13.6833 15.3457C13.7859 15.3457 13.9208 15.4214 14.088 15.5726C14.2552 15.724 14.4848 15.8859 14.7769 16.0586C15.0691 16.2316 15.4071 16.3308 15.7907 16.3567V13.3111C15.5311 13.2162 15.3317 13.1404 15.1934 13.0842C15.0548 13.0284 14.8708 12.9461 14.6414 12.8381C14.4119 12.7303 14.2343 12.6178 14.1089 12.5012C13.9835 12.3844 13.8513 12.2441 13.713 12.0799C13.5742 11.9156 13.4748 11.7235 13.4142 11.5031C13.3536 11.2828 13.3234 11.0387 13.3234 10.7708C13.3234 10.0188 13.559 9.44772 14.0311 9.05826C14.5029 8.66861 15.0894 8.43478 15.7907 8.35696V7.98032C15.7907 7.90231 15.8275 7.8331 15.9011 7.77249C15.9745 7.71207 16.0635 7.68167 16.1674 7.68167C16.2626 7.68167 16.3512 7.71207 16.4336 7.77249C16.5158 7.8331 16.557 7.90231 16.557 7.98032V8.33096C17.0849 8.34836 17.572 8.43698 18.018 8.5972C18.4639 8.75742 18.6869 8.98026 18.6869 9.2659C18.6869 9.42172 18.6343 9.58414 18.5296 9.75296C18.4249 9.92178 18.285 10.0062 18.1105 10.0062C18.0414 10.0062 17.8517 9.93277 17.5417 9.78537C17.2314 9.63834 16.9033 9.55154 16.557 9.52573V12.1575C16.9014 12.2871 17.1876 12.4104 17.4158 12.527C17.6439 12.6436 17.8851 12.8057 18.1392 13.013C18.3932 13.2204 18.5847 13.4817 18.7138 13.797C18.8429 14.1123 18.9075 14.4818 18.9075 14.9052C18.9075 15.6786 18.6966 16.2935 18.2747 16.7496C17.8527 17.2059 17.2803 17.4861 16.557 17.5904V18.0242C16.557 18.1007 16.5158 18.1687 16.4336 18.2284C16.3512 18.2879 16.2626 18.3175 16.1675 18.3175C16.0635 18.3175 15.9747 18.2877 15.9011 18.2285C15.8275 18.1689 15.7909 18.1009 15.7909 18.0244V17.6292C15.0376 17.6206 14.3989 17.4483 13.8752 17.1122C13.3512 16.7763 13.0894 16.4337 13.0894 16.0846ZM14.6089 10.6414C14.6089 10.9783 14.7139 11.2354 14.9237 11.4124C15.1335 11.5895 15.4487 11.756 15.8685 11.9114V9.55045C15.0288 9.65427 14.6089 10.0179 14.6089 10.6414ZM16.479 16.3307C17.2407 16.1924 17.6219 15.7649 17.6219 15.0476C17.6219 14.6677 17.5222 14.3694 17.3231 14.1535C17.1239 13.9377 16.8427 13.7518 16.479 13.5962V16.3307Z"
      fill="url(#paint7_linear_3620_1783)" />
  </g>
  <path
    d="M37.8496 23V16.42L36.2116 17.064V14.684L38.8856 13.368H41.1256V23H37.8496ZM45.6371 20.074C45.5998 20.1487 45.5764 20.2327 45.5671 20.326C45.5578 20.41 45.5531 20.508 45.5531 20.62H49.7951V23H42.4311V21.544C42.4311 20.7227 42.4544 20.1067 42.5011 19.696C42.5571 19.276 42.6878 18.9167 42.8931 18.618C43.0984 18.3194 43.4298 18.0767 43.8871 17.89L45.1331 17.386C45.5811 17.2087 45.8191 17.1154 45.8471 17.106C46.0711 17.0127 46.2251 16.938 46.3091 16.882C46.4024 16.8167 46.4584 16.742 46.4771 16.658C46.5051 16.5647 46.5191 16.4107 46.5191 16.196C46.5191 16.0094 46.4864 15.874 46.4211 15.79C46.3651 15.706 46.2671 15.6547 46.1271 15.636C45.9871 15.608 45.7584 15.594 45.4411 15.594C44.7971 15.594 43.8591 15.664 42.6271 15.804V13.592C43.1124 13.4894 43.6864 13.41 44.3491 13.354C45.0211 13.2887 45.6371 13.256 46.1971 13.256C46.9438 13.256 47.5738 13.326 48.0871 13.466C48.6004 13.5967 49.0111 13.8674 49.3191 14.278C49.6364 14.6794 49.7951 15.2674 49.7951 16.042C49.7951 16.91 49.6644 17.568 49.4031 18.016C49.1418 18.464 48.7778 18.772 48.3111 18.94L47.1351 19.388L46.1131 19.78C45.9731 19.836 45.8658 19.8874 45.7911 19.934C45.7164 19.9714 45.6651 20.018 45.6371 20.074ZM55.0347 23.112C53.756 23.112 52.8507 23.0047 52.3187 22.79C51.7867 22.566 51.4367 22.132 51.2687 21.488C51.1007 20.844 51.0167 19.7427 51.0167 18.184C51.0167 16.6254 51.1007 15.524 51.2687 14.88C51.4367 14.236 51.7867 13.8067 52.3187 13.592C52.8507 13.368 53.756 13.256 55.0347 13.256C56.3134 13.256 57.2187 13.368 57.7507 13.592C58.2827 13.8067 58.6327 14.236 58.8007 14.88C58.9687 15.524 59.0527 16.6254 59.0527 18.184C59.0527 19.7427 58.9687 20.844 58.8007 21.488C58.6327 22.132 58.2827 22.566 57.7507 22.79C57.2187 23.0047 56.3134 23.112 55.0347 23.112ZM55.0347 20.774C55.296 20.774 55.4687 20.732 55.5527 20.648C55.646 20.564 55.702 20.368 55.7207 20.06C55.7487 19.752 55.7627 19.1267 55.7627 18.184C55.7627 17.2414 55.7487 16.616 55.7207 16.308C55.702 16 55.646 15.804 55.5527 15.72C55.4687 15.636 55.296 15.594 55.0347 15.594C54.7734 15.594 54.596 15.636 54.5027 15.72C54.4187 15.804 54.3627 16 54.3347 16.308C54.316 16.616 54.3067 17.2414 54.3067 18.184C54.3067 19.1267 54.316 19.752 54.3347 20.06C54.3627 20.368 54.4187 20.564 54.5027 20.648C54.596 20.732 54.7734 20.774 55.0347 20.774ZM64.2496 23.112C62.9709 23.112 62.0656 23.0047 61.5336 22.79C61.0016 22.566 60.6516 22.132 60.4836 21.488C60.3156 20.844 60.2316 19.7427 60.2316 18.184C60.2316 16.6254 60.3156 15.524 60.4836 14.88C60.6516 14.236 61.0016 13.8067 61.5336 13.592C62.0656 13.368 62.9709 13.256 64.2496 13.256C65.5282 13.256 66.4336 13.368 66.9656 13.592C67.4976 13.8067 67.8476 14.236 68.0156 14.88C68.1836 15.524 68.2676 16.6254 68.2676 18.184C68.2676 19.7427 68.1836 20.844 68.0156 21.488C67.8476 22.132 67.4976 22.566 66.9656 22.79C66.4336 23.0047 65.5282 23.112 64.2496 23.112ZM64.2496 20.774C64.5109 20.774 64.6836 20.732 64.7676 20.648C64.8609 20.564 64.9169 20.368 64.9356 20.06C64.9636 19.752 64.9776 19.1267 64.9776 18.184C64.9776 17.2414 64.9636 16.616 64.9356 16.308C64.9169 16 64.8609 15.804 64.7676 15.72C64.6836 15.636 64.5109 15.594 64.2496 15.594C63.9882 15.594 63.8109 15.636 63.7176 15.72C63.6336 15.804 63.5776 16 63.5496 16.308C63.5309 16.616 63.5216 17.2414 63.5216 18.184C63.5216 19.1267 63.5309 19.752 63.5496 20.06C63.5776 20.368 63.6336 20.564 63.7176 20.648C63.8109 20.732 63.9882 20.774 64.2496 20.774Z"
    fill="#FFFAFA" />
  <path fill-rule="evenodd" clip-rule="evenodd"
    d="M91 23.2092C91 23.6459 91.3541 24 91.7909 24H93.8593C94.2961 24 94.6502 23.6459 94.6502 23.2092V19.2909H98.7091C99.1459 19.2909 99.5 18.9368 99.5 18.5V16.7909C99.5 16.3541 99.1459 16 98.7091 16H94.6502V11.7909C94.6502 11.3541 94.2961 11 93.8593 11L91.7909 11C91.3541 11 91 11.3541 91 11.7909V16H87.2909C86.8541 16 86.5 16.3541 86.5 16.7909L86.5 18.5C86.5 18.9368 86.8541 19.2909 87.2909 19.2909H91V23.2092Z"
    fill="url(#paint8_linear_3620_1783)" />
  <path d="M82 7.00003V29" stroke="#191241" />
  <defs>
    <filter id="filter0_d_3620_1783" x="13.0894" y="7.68167" width="6.11812" height="11.1359"
      filterUnits="userSpaceOnUse" color-interpolation-filters="sRGB">
      <feFlood flood-opacity="0" result="BackgroundImageFix" />
      <feColorMatrix in="SourceAlpha" type="matrix" values="0 0 0 0 0 0 0 0 0 0 0 0 0 0 0 0 0 0 127 0"
        result="hardAlpha" />
      <feOffset dx="0.3" dy="0.5" />
      <feColorMatrix type="matrix" values="0 0 0 0 0.7625 0 0 0 0 0.320059 0 0 0 0 0.0921354 0 0 0 0.7 0" />
      <feBlend mode="normal" in2="BackgroundImageFix" result="effect1_dropShadow_3620_1783" />
      <feBlend mode="normal" in="SourceGraphic" in2="effect1_dropShadow_3620_1783" result="shape" />
    </filter>
    <radialGradient id="paint0_radial_3620_1783" cx="0" cy="0" r="1" gradientUnits="userSpaceOnUse"
      gradientTransform="translate(16.4173 12.5864) scale(12.4984)">
      <stop stop-color="#FFA700" />
      <stop offset="0.3227" stop-color="#FCA300" />
      <stop offset="0.6649" stop-color="#DD5500" />
      <stop offset="1" stop-color="#C43F00" />
    </radialGradient>
    <linearGradient id="paint1_linear_3620_1783" x1="17" y1="11.1038" x2="17" y2="32.5473"
      gradientUnits="userSpaceOnUse">
      <stop stop-color="#E58200" stop-opacity="0" />
      <stop offset="0.0396" stop-color="#E27F04" stop-opacity="0.039216" />
      <stop offset="0.4671" stop-color="#C15D2F" stop-opacity="0.466667" />
      <stop offset="0.8016" stop-color="#D95100" />
      <stop offset="1" stop-color="#FBCF25" />
    </linearGradient>
    <radialGradient id="paint2_radial_3620_1783" cx="0" cy="0" r="1" gradientUnits="userSpaceOnUse"
      gradientTransform="translate(12.5351 9.76261) scale(16.7993)">
      <stop stop-color="#FFC738" />
      <stop offset="0.2837" stop-color="#FFC534" />
      <stop offset="0.5391" stop-color="#FFBF29" />
      <stop offset="0.7827" stop-color="#FFB417" />
      <stop offset="1" stop-color="#FFA700" />
    </radialGradient>
    <linearGradient id="paint3_linear_3620_1783" x1="5" y1="9.76261" x2="29.3344" y2="9.76261"
      gradientUnits="userSpaceOnUse">
      <stop stop-color="#FAD91D" />
      <stop offset="1" stop-color="#FFA700" />
    </linearGradient>
    <radialGradient id="paint4_radial_3620_1783" cx="0" cy="0" r="1" gradientUnits="userSpaceOnUse"
      gradientTransform="translate(16.047 13) scale(10.5082)">
      <stop stop-color="#FFFCF8" />
      <stop offset="0.9485" stop-color="#FFFCF8" stop-opacity="0.05098" />
      <stop offset="1" stop-color="#FFFCF8" stop-opacity="0" />
    </radialGradient>
    <radialGradient id="paint5_radial_3620_1783" cx="0" cy="0" r="1" gradientUnits="userSpaceOnUse"
      gradientTransform="translate(16.8197 11.8769) scale(12.5589 13.7032)">
      <stop stop-color="#FFA700" />
      <stop offset="0.3227" stop-color="#FCA300" />
      <stop offset="0.6649" stop-color="#F39600" />
      <stop offset="1" stop-color="#E58200" />
    </radialGradient>
    <radialGradient id="paint6_radial_3620_1783" cx="0" cy="0" r="1" gradientUnits="userSpaceOnUse"
      gradientTransform="translate(13.6102 9.98894) scale(12.7984)">
      <stop stop-color="#FFC738" />
      <stop offset="0.2837" stop-color="#FFC534" />
      <stop offset="0.5391" stop-color="#FFBF29" />
      <stop offset="0.7827" stop-color="#FFB417" />
      <stop offset="1" stop-color="#FFA700" />
    </radialGradient>
    <linearGradient id="paint7_linear_3620_1783" x1="15.4001" y1="12.9996" x2="18.3484" y2="12.9996"
      gradientUnits="userSpaceOnUse">
      <stop stop-color="#FFA700" />
      <stop offset="0.3227" stop-color="#FCA300" />
      <stop offset="0.6649" stop-color="#F39600" />
      <stop offset="1" stop-color="#E58200" />
    </linearGradient>
    <linearGradient id="paint8_linear_3620_1783" x1="88.9516" y1="12.4845" x2="96.891" y2="24"
      gradientUnits="userSpaceOnUse">
      <stop offset="0.0572917" stop-color="#A0D708" />
      <stop offset="0.322917" stop-color="#8FC300" />
      <stop offset="1" stop-color="#306D06" />
    </linearGradient>
  </defs>
</svg>
