<svg width="105" height="29" viewBox="0 0 105 29" fill="none" xmlns="http://www.w3.org/2000/svg">
  <path
    d="M101 7H14.8745C13.4108 7 12.0639 7.79955 11.363 9.08459L3.72659 23.0846C2.27268 25.7501 4.20193 29 7.23817 29H101C103.209 29 105 27.2091 105 25V11C105 8.79086 103.209 7 101 7Z"
    fill="#0C0A22" />
  <path
    d="M38.3496 23V16.42L36.7116 17.064V14.684L39.3856 13.368H41.6256V23H38.3496ZM46.1371 20.074C46.0998 20.1487 46.0764 20.2327 46.0671 20.326C46.0578 20.41 46.0531 20.508 46.0531 20.62H50.2951V23H42.9311V21.544C42.9311 20.7227 42.9544 20.1067 43.0011 19.696C43.0571 19.276 43.1878 18.9167 43.3931 18.618C43.5984 18.3194 43.9298 18.0767 44.3871 17.89L45.6331 17.386C46.0811 17.2087 46.3191 17.1154 46.3471 17.106C46.5711 17.0127 46.7251 16.938 46.8091 16.882C46.9024 16.8167 46.9584 16.742 46.9771 16.658C47.0051 16.5647 47.0191 16.4107 47.0191 16.196C47.0191 16.0094 46.9864 15.874 46.9211 15.79C46.8651 15.706 46.7671 15.6547 46.6271 15.636C46.4871 15.608 46.2584 15.594 45.9411 15.594C45.2971 15.594 44.3591 15.664 43.1271 15.804V13.592C43.6124 13.4894 44.1864 13.41 44.8491 13.354C45.5211 13.2887 46.1371 13.256 46.6971 13.256C47.4438 13.256 48.0738 13.326 48.5871 13.466C49.1004 13.5967 49.5111 13.8674 49.8191 14.278C50.1364 14.6794 50.2951 15.2674 50.2951 16.042C50.2951 16.91 50.1644 17.568 49.9031 18.016C49.6418 18.464 49.2778 18.772 48.8111 18.94L47.6351 19.388L46.6131 19.78C46.4731 19.836 46.3658 19.8874 46.2911 19.934C46.2164 19.9714 46.1651 20.018 46.1371 20.074ZM55.5347 23.112C54.256 23.112 53.3507 23.0047 52.8187 22.79C52.2867 22.566 51.9367 22.132 51.7687 21.488C51.6007 20.844 51.5167 19.7427 51.5167 18.184C51.5167 16.6254 51.6007 15.524 51.7687 14.88C51.9367 14.236 52.2867 13.8067 52.8187 13.592C53.3507 13.368 54.256 13.256 55.5347 13.256C56.8134 13.256 57.7187 13.368 58.2507 13.592C58.7827 13.8067 59.1327 14.236 59.3007 14.88C59.4687 15.524 59.5527 16.6254 59.5527 18.184C59.5527 19.7427 59.4687 20.844 59.3007 21.488C59.1327 22.132 58.7827 22.566 58.2507 22.79C57.7187 23.0047 56.8134 23.112 55.5347 23.112ZM55.5347 20.774C55.796 20.774 55.9687 20.732 56.0527 20.648C56.146 20.564 56.202 20.368 56.2207 20.06C56.2487 19.752 56.2627 19.1267 56.2627 18.184C56.2627 17.2414 56.2487 16.616 56.2207 16.308C56.202 16 56.146 15.804 56.0527 15.72C55.9687 15.636 55.796 15.594 55.5347 15.594C55.2734 15.594 55.096 15.636 55.0027 15.72C54.9187 15.804 54.8627 16 54.8347 16.308C54.816 16.616 54.8067 17.2414 54.8067 18.184C54.8067 19.1267 54.816 19.752 54.8347 20.06C54.8627 20.368 54.9187 20.564 55.0027 20.648C55.096 20.732 55.2734 20.774 55.5347 20.774ZM64.7496 23.112C63.4709 23.112 62.5656 23.0047 62.0336 22.79C61.5016 22.566 61.1516 22.132 60.9836 21.488C60.8156 20.844 60.7316 19.7427 60.7316 18.184C60.7316 16.6254 60.8156 15.524 60.9836 14.88C61.1516 14.236 61.5016 13.8067 62.0336 13.592C62.5656 13.368 63.4709 13.256 64.7496 13.256C66.0282 13.256 66.9336 13.368 67.4656 13.592C67.9976 13.8067 68.3476 14.236 68.5156 14.88C68.6836 15.524 68.7676 16.6254 68.7676 18.184C68.7676 19.7427 68.6836 20.844 68.5156 21.488C68.3476 22.132 67.9976 22.566 67.4656 22.79C66.9336 23.0047 66.0282 23.112 64.7496 23.112ZM64.7496 20.774C65.0109 20.774 65.1836 20.732 65.2676 20.648C65.3609 20.564 65.4169 20.368 65.4356 20.06C65.4636 19.752 65.4776 19.1267 65.4776 18.184C65.4776 17.2414 65.4636 16.616 65.4356 16.308C65.4169 16 65.3609 15.804 65.2676 15.72C65.1836 15.636 65.0109 15.594 64.7496 15.594C64.4882 15.594 64.3109 15.636 64.2176 15.72C64.1336 15.804 64.0776 16 64.0496 16.308C64.0309 16.616 64.0216 17.2414 64.0216 18.184C64.0216 19.1267 64.0309 19.752 64.0496 20.06C64.0776 20.368 64.1336 20.564 64.2176 20.648C64.3109 20.732 64.4882 20.774 64.7496 20.774Z"
    fill="#FFFAFA" />
  <path fill-rule="evenodd" clip-rule="evenodd"
    d="M91.5 23.2092C91.5 23.6459 91.8541 24 92.2909 24H94.3593C94.7961 24 95.1502 23.6459 95.1502 23.2092V19.2909H99.2091C99.6459 19.2909 100 18.9368 100 18.5V16.7909C100 16.3541 99.6459 16 99.2091 16H95.1502V11.7909C95.1502 11.3541 94.7961 11 94.3593 11L92.2909 11C91.8541 11 91.5 11.3541 91.5 11.7909V16H87.7909C87.3541 16 87 16.3541 87 16.7909L87 18.5C87 18.9368 87.3541 19.2909 87.7909 19.2909H91.5V23.2092Z"
    fill="url(#paint0_linear_3620_1797)" />
  <path d="M82.5 7V29" stroke="#191241" />
  <path
    d="M15.6176 14.3002L18.6943 14.0352C19.0121 14.0078 19.2488 14.3109 19.1318 14.5956L15.7674 22.7853C15.5927 23.2106 16.1636 23.5509 16.4841 23.2126L29.385 9.59571C29.5206 9.45255 29.3938 9.22536 29.1944 9.25405L24.9635 9.86251L28.0905 4.24971C28.3269 3.82534 28.1347 3.29786 27.674 3.10701L21.8189 0.681117C21.3804 0.499403 20.8714 0.696176 20.6871 1.11876L15.1835 13.7318C15.0588 14.0175 15.2958 14.3279 15.6176 14.3002Z"
    fill="url(#paint1_linear_3620_1797)" />
  <path fill-rule="evenodd" clip-rule="evenodd"
    d="M22.2507 0.133271L28.0179 2.52056C28.9254 2.89619 29.3041 3.93435 28.8383 4.76958L26.5507 8.87212L29.0549 8.51231C30.0373 8.37115 30.6615 9.48902 29.9935 10.1934L17.2863 23.5936C16.339 24.5925 14.6521 23.5878 15.1684 22.3321L18.2314 14.8829L15.8828 15.085C14.9319 15.1668 14.2315 14.2505 14.5999 13.4069L20.0209 0.994638C20.3842 0.162912 21.3867 -0.224372 22.2507 0.133271ZM28.0929 4.38818C28.3258 3.97056 28.1364 3.45148 27.6827 3.26367L21.9155 0.876382C21.4835 0.69756 20.9822 0.891202 20.8006 1.30707L15.3796 13.7193C15.2568 14.0006 15.4902 14.306 15.8072 14.2787L18.8377 14.018C19.1508 13.991 19.3839 14.2893 19.2687 14.5694L15.9548 22.6288C15.7827 23.0473 16.345 23.3823 16.6607 23.0493L29.368 9.6491C29.5015 9.50823 29.3767 9.28465 29.1802 9.31288L25.0129 9.91166L28.0929 4.38818Z"
    fill="#652301" />
  <mask id="mask0_3620_1797" style="mask-type:alpha" maskUnits="userSpaceOnUse" x="15" y="0" width="15" height="24">
    <path
      d="M15.6176 14.3002L18.6943 14.0352C19.0121 14.0078 19.2488 14.3109 19.1318 14.5956L15.7674 22.7853C15.5927 23.2106 16.1636 23.5509 16.4841 23.2126L29.385 9.59571C29.5206 9.45255 29.3938 9.22536 29.1944 9.25405L24.9635 9.86251L28.0905 4.24971C28.3269 3.82534 28.1347 3.29786 27.674 3.10701L21.8189 0.681117C21.3804 0.499403 20.8714 0.696176 20.6871 1.11876L15.1835 13.7318C15.0588 14.0175 15.2958 14.3279 15.6176 14.3002Z"
      fill="url(#paint2_linear_3620_1797)" />
  </mask>
  <g mask="url(#mask0_3620_1797)">
    <path d="M22.7313 12.6886L15.7991 24.0055L17.2902 25.9485L31.39 8.40869L22.7313 12.6886Z"
      fill="url(#paint3_linear_3620_1797)" />
    <path d="M20.3467 10.4806L22.7008 12.9561L32.0399 8.40869L20.3467 10.4806Z" fill="url(#paint4_linear_3620_1797)" />
    <path d="M23.8546 3.79717L20.3467 10.3581L25.6996 9.51895L30.091 3.21228L23.8546 3.79717Z"
      fill="url(#paint5_linear_3620_1797)" />
    <path d="M19.697 0.896783L23.9845 3.86187H29.4414V-0.909226L21.3953 -2.63437L19.697 0.896783Z"
      fill="url(#paint6_linear_3620_1797)" />
  </g>
  <defs>
    <linearGradient id="paint0_linear_3620_1797" x1="89.4516" y1="12.4845" x2="97.391" y2="24"
      gradientUnits="userSpaceOnUse">
      <stop offset="0.0572917" stop-color="#A0D708" />
      <stop offset="0.322917" stop-color="#8FC300" />
      <stop offset="1" stop-color="#306D06" />
    </linearGradient>
    <linearGradient id="paint1_linear_3620_1797" x1="22.3493" y1="0.350962" x2="22.3493" y2="24.8753"
      gradientUnits="userSpaceOnUse">
      <stop stop-color="#FACB0E" />
      <stop offset="0.671875" stop-color="#F77C01" />
      <stop offset="1" stop-color="#FF4921" />
    </linearGradient>
    <linearGradient id="paint2_linear_3620_1797" x1="22.3493" y1="0.350962" x2="22.3493" y2="24.8753"
      gradientUnits="userSpaceOnUse">
      <stop stop-color="#FACB0E" />
      <stop offset="0.671875" stop-color="#F77C01" />
      <stop offset="1" stop-color="#FF4921" />
    </linearGradient>
    <linearGradient id="paint3_linear_3620_1797" x1="14.7265" y1="20.0669" x2="27.4542" y2="14.7444"
      gradientUnits="userSpaceOnUse">
      <stop offset="0.0001" stop-color="#A52300" />
      <stop offset="1" stop-color="#EA6000" />
    </linearGradient>
    <linearGradient id="paint4_linear_3620_1797" x1="26.1933" y1="8.40869" x2="26.1933" y2="12.9561"
      gradientUnits="userSpaceOnUse">
      <stop stop-color="#F7EE10" />
      <stop offset="1" stop-color="#FFB936" />
    </linearGradient>
    <linearGradient id="paint5_linear_3620_1797" x1="21.542" y1="10.3836" x2="23.5233" y2="5.03078"
      gradientUnits="userSpaceOnUse">
      <stop offset="0.0001" stop-color="#E3562F" />
      <stop offset="1" stop-color="#FF881B" />
    </linearGradient>
    <linearGradient id="paint6_linear_3620_1797" x1="22.7039" y1="-0.639673" x2="24.4677" y2="3.90129"
      gradientUnits="userSpaceOnUse">
      <stop stop-color="#F9BD0B" />
      <stop offset="0.729167" stop-color="#FADA1E" />
    </linearGradient>
  </defs>
</svg>
